<svg width="1412" height="684" viewBox="0 0 1412 684" fill="none" xmlns="http://www.w3.org/2000/svg">
<path d="M292.055 497.167C303.574 522.263 292.568 551.947 267.471 563.466C242.374 574.986 212.691 563.979 201.171 538.882C189.652 513.785 200.659 484.102 225.755 472.583C250.852 461.063 280.535 472.07 292.055 497.167Z" fill="#FFCB08"/>
<path d="M318.362 231.762C352.92 307.052 319.9 396.102 244.61 430.66C169.319 465.219 80.2693 432.199 45.7111 356.908C11.1528 281.618 44.1728 192.568 119.463 158.01C194.754 123.452 283.803 156.472 318.362 231.762Z" fill="black"/>
<path d="M528.915 91.1396C554.258 146.353 530.043 211.656 474.83 236.999C419.617 262.341 354.314 238.127 328.971 182.914C303.628 127.701 327.843 62.3975 383.056 37.0548C438.269 11.7121 503.572 35.9267 528.915 91.1396Z" fill="#FFCB08"/>
<path d="M701.537 374.509C747.614 474.896 703.588 593.63 603.2 639.707C502.813 685.785 384.08 641.758 338.002 541.371C291.925 440.984 335.951 322.251 436.338 276.173C536.726 230.095 655.459 274.122 701.537 374.509Z" fill="#FFCB08"/>
<path d="M418.2 562V352H450.3L542.1 505.3H525.3L615.6 352H647.7L648 562H611.1L610.8 409.9H618.6L541.8 538H524.4L446.4 409.9H455.4V562H418.2ZM858.923 564.1C841.123 564.1 825.523 560.6 812.123 553.6C798.923 546.4 788.623 536.6 781.223 524.2C774.023 511.8 770.423 497.7 770.423 481.9C770.423 465.9 773.923 451.8 780.923 439.6C788.123 427.2 797.923 417.5 810.323 410.5C822.923 403.5 837.223 400 853.223 400C868.823 400 882.723 403.4 894.923 410.2C907.123 417 916.723 426.6 923.723 439C930.723 451.4 934.223 466 934.223 482.8C934.223 484.4 934.123 486.2 933.923 488.2C933.923 490.2 933.823 492.1 933.623 493.9H800.123V469H913.823L899.123 476.8C899.323 467.6 897.423 459.5 893.423 452.5C889.423 445.5 883.923 440 876.923 436C870.123 432 862.223 430 853.223 430C844.023 430 835.923 432 828.923 436C822.123 440 816.723 445.6 812.723 452.8C808.923 459.8 807.023 468.1 807.023 477.7V483.7C807.023 493.3 809.223 501.8 813.623 509.2C818.023 516.6 824.223 522.3 832.223 526.3C840.223 530.3 849.423 532.3 859.823 532.3C868.823 532.3 876.923 530.9 884.123 528.1C891.323 525.3 897.723 520.9 903.323 514.9L923.423 538C916.223 546.4 907.123 552.9 896.123 557.5C885.323 561.9 872.923 564.1 858.923 564.1Z" fill="black"/>
<path d="M1052.74 562V339.4H1090.24V562H1052.74ZM1320.66 562V529.6L1318.56 522.7V466C1318.56 455 1315.26 446.5 1308.66 440.5C1302.06 434.3 1292.06 431.2 1278.66 431.2C1269.66 431.2 1260.76 432.6 1251.96 435.4C1243.36 438.2 1236.06 442.1 1230.06 447.1L1215.36 419.8C1223.96 413.2 1234.16 408.3 1245.96 405.1C1257.96 401.7 1270.36 400 1283.16 400C1306.36 400 1324.26 405.6 1336.86 416.8C1349.66 427.8 1356.06 444.9 1356.06 468.1V562H1320.66ZM1270.26 564.1C1258.26 564.1 1247.76 562.1 1238.76 558.1C1229.76 553.9 1222.76 548.2 1217.76 541C1212.96 533.6 1210.56 525.3 1210.56 516.1C1210.56 507.1 1212.66 499 1216.86 491.8C1221.26 484.6 1228.36 478.9 1238.16 474.7C1247.96 470.5 1260.96 468.4 1277.16 468.4H1323.66V493.3H1279.86C1267.06 493.3 1258.46 495.4 1254.06 499.6C1249.66 503.6 1247.46 508.6 1247.46 514.6C1247.46 521.4 1250.16 526.8 1255.56 530.8C1260.96 534.8 1268.46 536.8 1278.06 536.8C1287.26 536.8 1295.46 534.7 1302.66 530.5C1310.06 526.3 1315.36 520.1 1318.56 511.9L1324.86 534.4C1321.26 543.8 1314.76 551.1 1305.36 556.3C1296.16 561.5 1284.46 564.1 1270.26 564.1Z" fill="#FFCB08"/>
</svg>
